<svg width="32" height="32" viewBox="0 0 32 32" fill="none" xmlns="http://www.w3.org/2000/svg">
<rect width="32" height="32" fill="#F5F5F5"/>
<path d="M16.0065 28.3565C15.7935 28.358 15.5838 28.3037 15.3985 28.1986C13.8117 27.2804 2.05891 19.9114 1.61519 19.6865C1.27735 19.5288 1.04675 19.206 1.00717 18.8353V8.49924C0.998378 8.11347 1.18906 7.75038 1.51167 7.53861L1.59692 7.49001C2.7338 6.78468 6.53988 4.4621 7.14181 4.12776C7.27994 4.04578 7.43725 4.00169 7.59782 4C7.74847 4.00169 7.89642 4.03924 8.02959 4.10949C8.02959 4.10949 13.3556 7.58112 14.1704 7.89122C14.742 8.15384 15.3654 8.28476 15.9944 8.27427C16.7071 8.28927 17.4115 8.11731 18.0373 7.77575C18.8337 7.35616 23.9227 4.12776 23.9774 4.12776C24.1057 4.05018 24.2532 4.01026 24.4031 4.01218C24.5638 4.01297 24.7213 4.05706 24.8591 4.13994C25.5521 4.52299 30.2704 7.41096 30.4709 7.53861C30.8027 7.73876 31.0039 8.0996 30.9999 8.48706V18.8231C30.9627 19.1947 30.7312 19.5186 30.3919 19.6744C29.9481 19.9175 18.2318 27.2865 16.6146 28.1864C16.4304 28.2958 16.2207 28.3544 16.0065 28.3567V28.3565V28.3565Z" fill="url(#paint0_linear_8_55)"/>
<path d="M15.9458 28.3567H16.0065C16.2196 28.358 16.4292 28.3037 16.6146 28.1986C18.2014 27.2805 29.9481 19.9114 30.3919 19.6866C30.7312 19.5308 30.9627 19.2067 30.9998 18.8353V8.49924C31.0019 8.32423 30.9623 8.15126 30.8844 7.99463L15.9458 16.1965V28.3567V28.3567Z" fill="url(#paint1_linear_8_55)"/>
<path d="M15.8938 28.2108H15.8337C15.6229 28.2123 15.4154 28.1584 15.2321 28.0544C13.6621 27.1461 2.04065 19.8557 1.60155 19.6331C1.26586 19.4791 1.03684 19.1586 1.00007 18.791V8.56508C0.998045 8.39188 1.03729 8.22081 1.1143 8.06577L15.8938 16.1804V28.2108V28.2108Z" fill="url(#paint2_linear_8_55)"/>
<defs>
<linearGradient id="paint0_linear_8_55" x1="1.00864" y1="16.2945" x2="30.8332" y2="16.0635" gradientUnits="userSpaceOnUse">
<stop stop-color="#FFB800"/>
<stop offset="0.329412" stop-color="#F28000"/>
<stop offset="0.560784" stop-color="#F73B72"/>
<stop offset="0.780392" stop-color="#FB1CBD"/>
<stop offset="0.929412" stop-color="#FD08ED"/>
<stop offset="1" stop-color="#FF00FF"/>
</linearGradient>
<linearGradient id="paint1_linear_8_55" x1="9.39933" y1="25.9681" x2="39.831" y2="9.11843" gradientUnits="userSpaceOnUse">
<stop stop-color="#ED0A3F"/>
<stop offset="1" stop-color="#ED0A3F"/>
</linearGradient>
<linearGradient id="paint2_linear_8_55" x1="13.2731" y1="12.3415" x2="-3.23056" y2="18.4162" gradientUnits="userSpaceOnUse">
<stop stop-color="#ED5B00"/>
<stop offset="0.0862745" stop-color="#F37D00"/>
<stop offset="0.14902" stop-color="#EF6200"/>
<stop offset="0.501961" stop-color="#FB8A00"/>
<stop offset="1" stop-color="#F9A000"/>
</linearGradient>
</defs>
</svg>
