<svg xmlns="http://www.w3.org/2000/svg" width="106.066" height="33.028" viewBox="0 0 106.066 33.028">
  <g id="Logo" transform="translate(-108 -13)">
    <g id="Group_9" data-name="Group 9" transform="translate(107.88 -41.652)">
      <g id="a" transform="translate(0.12 54.652)">
        <g id="Group_8" data-name="Group 8" transform="translate(0 0)">
          <path id="Path_1" data-name="Path 1" d="M428.45,113.971c.294-.267,1.791-1.573,2.044-1.8.41.457.786.869.84.913a.69.69,0,0,0,.771.058,3.948,3.948,0,0,0,1.09-.956.706.706,0,0,0,.051-.779c-.079-.133-1.684-2.071-1.872-2.276s-1.849-2.094-1.969-2.192a.688.688,0,0,0-.771-.058,3.7,3.7,0,0,0-.589.427,3.749,3.749,0,0,0-.5.528.706.706,0,0,0-.051.779c.036.061.387.494.777.968-.234.2-1.7,1.461-1.97,1.689l2.15,2.7Z" transform="translate(-391.341 -102.51)" fill="#454565"/>
          <path id="Path_2" data-name="Path 2" d="M274.657,60.517c.041-.336.427-2.079.461-2.376.932-.017,1.778-.039,1.885-.055a1.2,1.2,0,0,0,.937-.719,4.605,4.605,0,0,0,.235-.954,4.23,4.23,0,0,0,.033-.954.833.833,0,0,0-.734-.719c-.225-.036-4.025-.1-4.448-.084-.419-.011-4.236.048-4.471.084a1.2,1.2,0,0,0-.937.719,4.606,4.606,0,0,0-.235.954,4.228,4.228,0,0,0-.033.954.833.833,0,0,0,.734.719c.1.016.943.038,1.869.055-.048.3-.449,2.04-.5,2.376h5.2Z" transform="translate(-245.417 -54.652)" fill="#454565"/>
          <rect id="Rectangle_6" data-name="Rectangle 6" width="3.103" height="3.103" rx="1.552" transform="translate(1.3 14.031)" fill="#00ca80"/>
          <path id="Path_3" data-name="Path 3" d="M26.954,121.854a15.31,15.31,0,0,0-7.933,2.3l-5.542,0h-.011l0,0,0,0H3.874a1.547,1.547,0,0,0-1.547,1.547v.016a1.547,1.547,0,0,0,1.547,1.547l7.608,0a1.547,1.547,0,0,1,1.435,1.543v.016a1.547,1.547,0,0,1-1.547,1.547H7.106a1.547,1.547,0,0,0-1.547,1.547v.016a1.547,1.547,0,0,0,1.547,1.547H8.78a1.547,1.547,0,0,1,1.547,1.547v.016a1.547,1.547,0,0,1-1.547,1.547H1.667A1.547,1.547,0,0,0,.12,138.134v.016A1.547,1.547,0,0,0,1.667,139.7h8.34a1.547,1.547,0,0,1,1.547,1.547v.016a1.547,1.547,0,0,1-1.547,1.547H5.955a1.547,1.547,0,0,0-1.547,1.547v.016a1.547,1.547,0,0,0,1.547,1.547h8.506a11.956,11.956,0,0,0,8.625,3.45,16.368,16.368,0,0,0,15.691-13.758c1.068-7.6-4.226-13.758-11.825-13.758Z" transform="translate(-0.12 -116.338)" fill="#039660"/>
          <path id="Path_4" data-name="Path 4" d="M11.237,142.244a22.7,22.7,0,0,0,21.233-19.117,12.559,12.559,0,0,0-5.516-1.227,15.31,15.31,0,0,0-7.933,2.3l-5.542,0h-.011l0,0,0,0H3.874a1.547,1.547,0,0,0-1.547,1.547v.016A1.547,1.547,0,0,0,3.874,127.3l7.608,0a1.547,1.547,0,0,1,1.435,1.543v.016a1.547,1.547,0,0,1-1.547,1.547H7.106a1.547,1.547,0,0,0-1.547,1.547v.016a1.547,1.547,0,0,0,1.547,1.547H8.78a1.547,1.547,0,0,1,1.547,1.547v.016a1.547,1.547,0,0,1-1.547,1.547H1.667A1.547,1.547,0,0,0,.12,138.18v.016a1.547,1.547,0,0,0,1.547,1.547h8.34a1.547,1.547,0,0,1,1.547,1.547v.016a1.537,1.537,0,0,1-.317.936Z" transform="translate(-0.12 -116.384)" fill="#00ca80"/>
          <path id="Path_5" data-name="Path 5" d="M261.4,187.78l-6.482,10a.809.809,0,0,1-.678.368h-.508a.807.807,0,0,1-.785-1l1.6-6.592H250.65a.72.72,0,0,1-.7-.89l2.161-8.918a.72.72,0,0,1,.7-.551h4.48a.72.72,0,0,1,.7.89l-1.318,5.441h4.048a.808.808,0,0,1,.678,1.248Z" transform="translate(-229.437 -169.901)" fill="#fff"/>
        </g>
      </g>
    </g>
    <g id="Group_4" data-name="Group 4" transform="translate(155.438 20)">
      <path id="Shape" d="M29.2,41.6a2.6,2.6,0,0,1,2.6,2.6,1.3,1.3,0,1,0,2.6,0,5.2,5.2,0,1,0-5.2,5.2,2.6,2.6,0,1,1-2.6,2.6,1.3,1.3,0,1,0-2.6,0,5.2,5.2,0,1,0,5.2-5.2,2.6,2.6,0,0,1,0-5.2Z" transform="translate(-24 -39)" fill="#454565"/>
      <path id="Shape-2" data-name="Shape" d="M38.2,39A5.2,5.2,0,0,0,33,44.2V55.911a1.3,1.3,0,1,0,2.6,0v-6.5h5.2v6.5a1.3,1.3,0,1,0,2.6,0V44.2A5.2,5.2,0,0,0,38.2,39Zm2.6,7.8H35.6V44.2a2.6,2.6,0,1,1,5.2,0Z" transform="translate(-21.293 -39)" fill="#454565"/>
      <path id="Subtraction_2" data-name="Subtraction 2" d="M9.354,13.164a1.338,1.338,0,0,1-1.336-1.336V5.146H2.673v6.681a1.336,1.336,0,1,1-2.673,0V0H2.673V2.473H8.018V0H10.69V11.827A1.338,1.338,0,0,1,9.354,13.164Z" transform="translate(47.937 5.047)" fill="#454565"/>
      <path id="Shape-3" data-name="Shape" d="M48.5,54.61H44.6V40.3a1.3,1.3,0,1,0-2.6,0v15.61a1.3,1.3,0,0,0,1.3,1.3h5.2a1.3,1.3,0,1,0,0-2.6Z" transform="translate(-18.585 -39)" fill="#454565"/>
      <path id="Shape-4" data-name="Shape" d="M3.486,15.61H2.6V1.3A1.3,1.3,0,0,0,0,1.3v15.61a1.3,1.3,0,0,0,1.3,1.3H3.486a1.3,1.3,0,0,0,0-2.6Z" transform="translate(46.61 18.211) rotate(180)" fill="#454565"/>
      <path id="Shape-5" data-name="Shape" d="M55.5,54.61H51.6v-5.2h2.6a1.3,1.3,0,0,0,0-2.6H51.6V41.6h3.9a1.3,1.3,0,1,0,0-2.6H50.3A1.3,1.3,0,0,0,49,40.3v15.61a1.3,1.3,0,0,0,1.3,1.3h5.2a1.3,1.3,0,1,0,0-2.6Z" transform="translate(-16.48 -39)" fill="#454565"/>
      <path id="Subtraction_3" data-name="Subtraction 3" d="M10.69,12.83H8.018V10.69H2.673v2.139H0V1.336a1.336,1.336,0,1,1,2.673,0V8.018H8.018V1.336a1.336,1.336,0,1,1,2.673,0V12.829Z" transform="translate(47.937 0)" fill="#454565"/>
    </g>
  </g>
</svg>
