<svg width="32" height="32" viewBox="0 0 32 32" fill="none" xmlns="http://www.w3.org/2000/svg">
<rect width="32" height="32" fill="#F5F5F5"/>
<path d="M25.4638 12L24.3167 18.1288C24.1639 18.9397 24.0723 19.7609 24.0427 20.5855H22.4212L22.5212 19.4966H22.496C22.2984 19.8369 22.0146 20.119 21.6732 20.3146C21.3317 20.5102 20.9447 20.6123 20.5512 20.6106C19.5287 20.6106 18.7057 19.8003 18.7057 18.3314C18.7057 16.2296 20.202 14.3048 22.4464 14.3048C22.7205 14.3048 22.9949 14.3555 23.2694 14.4566L23.7182 12.0256L25.4638 12V12ZM22.9949 15.8496C22.7965 15.6957 22.5468 15.6232 22.2968 15.647C21.2494 15.647 20.5012 16.8877 20.5012 18.0529C20.5012 18.7873 20.8253 19.1925 21.3242 19.1925C21.8479 19.1925 22.4464 18.6607 22.6708 17.4959L22.9949 15.8496V15.8496ZM1.54888 18.534C2.13653 18.8856 2.80925 19.0695 3.49404 19.0658C4.16737 19.0658 4.79069 18.7366 4.79069 18.0781C4.79069 17.597 4.44181 17.2929 3.69367 16.9133C2.7959 16.4318 1.97295 15.7988 1.97295 14.7096C1.97295 13.0385 3.41923 12 5.21476 12C6.21216 12 6.81104 12.2281 7.15992 12.4307L6.61141 13.9248C6.14318 13.6751 5.6206 13.5447 5.08995 13.5452C4.267 13.5452 3.8433 13.9755 3.8433 14.4315C3.8433 14.9126 4.34181 15.2166 5.04032 15.5963C6.03772 16.1281 6.68623 16.8122 6.68623 17.7999C6.68623 19.6484 5.16476 20.611 3.34442 20.611C2.19739 20.611 1.37407 20.3069 1 20.0284L1.54888 18.534V18.534ZM11.7732 20.1295C11.0791 20.4549 10.3205 20.6195 9.55397 20.611C7.85806 20.611 6.98548 19.6229 6.98548 18.0781C6.98548 16.2296 8.30695 14.33 10.4517 14.33C11.6488 14.33 12.5213 15.014 12.5213 16.1281C12.5213 17.6729 11.0502 18.2303 8.6562 18.1799C8.6562 18.4077 8.73102 18.6103 8.83064 18.7873C9.05509 19.091 9.45434 19.2688 9.97804 19.2688C10.5514 19.2688 11.1251 19.1421 11.6484 18.8888L11.7736 20.1295H11.7732ZM10.2273 15.5963C9.40434 15.5963 8.95546 16.2799 8.83064 16.837C10.2021 16.8629 10.8754 16.6599 10.8754 16.1029C10.8754 15.7992 10.651 15.5963 10.2273 15.5963V15.5963ZM12.2717 20.5855L13.045 16.3818C13.1947 15.6218 13.3191 14.8114 13.3691 14.2796H14.9402L14.7906 15.4192H14.8158C15.0413 15.0688 15.3514 14.7807 15.7175 14.5816C16.0835 14.3824 16.4938 14.2786 16.9105 14.2796C17.8828 14.2796 18.4316 14.887 18.4316 15.9255C18.4316 16.2803 18.3816 16.6096 18.3316 16.964L17.6583 20.5855H15.9128L16.5609 17.1159C16.6109 16.8881 16.6109 16.6603 16.6109 16.4322C16.6109 16.0014 16.4613 15.7229 16.0376 15.7229C15.4639 15.7229 14.7906 16.4574 14.5661 17.7747L14.0424 20.5858H12.2721L12.2717 20.5855ZM31 16.787C31 18.9907 29.5285 20.611 27.4589 20.611C25.9378 20.611 24.9404 19.5981 24.9404 18.1036C24.9404 16.0018 26.3864 14.2796 28.4811 14.2796C30.0774 14.3052 30.9996 15.4196 30.9996 16.787M26.7608 18.0784C26.7608 18.7877 27.1097 19.2436 27.7082 19.2436C28.6808 19.2436 29.2045 17.8251 29.2045 16.787C29.2045 16.2299 28.98 15.6474 28.2571 15.6474C27.2593 15.6474 26.736 17.1414 26.7608 18.0788" fill="#EE2624"/>
</svg>
