<svg width="32" height="32" viewBox="0 0 32 32" fill="none" xmlns="http://www.w3.org/2000/svg">
<rect width="32" height="32" fill="#F5F5F5"/>
<path d="M4.30799 9.37228H10.3757C10.561 7.31749 11.1331 5.4722 11.955 4.04593C13.0429 2.16035 14.59 1 16.3386 1C18.0872 1 19.6263 2.16841 20.7222 4.04593C21.5441 5.46414 22.1162 7.31749 22.3015 9.37228H28.3612C29.0783 9.37228 29.723 9.96052 29.6666 10.6777L28.4498 27.6559C28.2967 29.7832 26.9591 31 25.0171 31H7.66012C5.50057 31 4.35633 29.4932 4.22741 27.6559L3.00259 10.6857C2.95424 9.96857 3.59082 9.37228 4.30799 9.37228ZM11.8906 9.37228H20.7705C20.5932 7.59146 20.1017 6.01209 19.4007 4.80338C18.5949 3.39323 17.499 2.51491 16.3386 2.51491C15.1702 2.51491 14.0824 3.39323 13.2604 4.81144C12.5594 6.01209 12.0759 7.59952 11.8906 9.37228Z" fill="#EA501F"/>
<path d="M11.9309 25.0451C11.6488 24.8517 11.5763 24.473 11.7697 24.191C11.9631 23.9089 12.3418 23.8364 12.6239 24.0298C12.8011 24.1507 12.9865 24.2715 13.1879 24.3924C14.6061 25.2546 15.9115 25.6817 16.9994 25.6817C17.9824 25.6817 18.7802 25.311 19.2878 24.5616C19.3201 24.5052 19.3523 24.473 19.3604 24.4488C19.5054 24.2151 19.6102 23.9653 19.6827 23.7236C19.8277 23.224 19.8036 22.7083 19.6021 22.2409C19.3845 21.7494 18.9655 21.274 18.3128 20.8791C17.8777 20.6132 17.3378 20.3795 16.6851 20.2022C15.0251 19.7349 13.8003 19.0741 13.1396 18.1877C12.4143 17.2127 12.3579 16.0363 13.1315 14.61C13.6472 13.6672 14.7028 13.079 16.0405 12.9742C17.1928 12.8856 18.5787 13.1595 19.9889 13.8767C20.2951 14.0298 20.416 14.4005 20.2548 14.7067C20.0936 15.0129 19.731 15.1338 19.4248 14.9726C18.2242 14.3602 17.0799 14.1265 16.1291 14.199C15.2185 14.2715 14.5255 14.6261 14.2193 15.1902C13.7036 16.1329 13.7117 16.8743 14.1307 17.4383C14.6142 18.091 15.6214 18.5987 17.0235 18.9935C17.781 19.2111 18.4256 19.4851 18.9575 19.8074C19.8358 20.3392 20.424 21.008 20.7383 21.7333C21.0606 22.4827 21.1009 23.2724 20.8833 24.0459C20.7866 24.3924 20.6335 24.7389 20.424 25.0773C20.3757 25.1499 20.3434 25.2063 20.3193 25.2466C19.5699 26.3505 18.4176 26.8985 17.0155 26.9065C15.702 26.9065 14.171 26.423 12.5594 25.44C12.3579 25.3271 12.1484 25.1982 11.9309 25.0451Z" fill="white"/>
</svg>
