<svg xmlns="http://www.w3.org/2000/svg" width="36" height="36" viewBox="0 0 36 36"><g transform="translate(-1724 -372)"><g transform="translate(1705.732 357.8)"><path d="M21.837,24.247h7.281a15.775,15.775,0,0,1,1.9-6.392c1.305-2.263,3.162-3.655,5.26-3.655s3.945,1.4,5.26,3.655a15.729,15.729,0,0,1,1.9,6.392H50.7a1.53,1.53,0,0,1,1.566,1.566l-1.46,20.374A3.935,3.935,0,0,1,46.688,50.2H25.86a3.975,3.975,0,0,1-4.119-4.013l-1.47-20.364a1.544,1.544,0,0,1,1.566-1.576Zm9.1,0H41.593a13.762,13.762,0,0,0-1.644-5.483c-.967-1.692-2.282-2.746-3.674-2.746s-2.707,1.054-3.694,2.756A13.87,13.87,0,0,0,30.937,24.247Z" transform="translate(0 0)" fill="#ea501f"/><path d="M128.079,177.1a.738.738,0,0,1,.832-1.218c.213.145.435.29.677.435a9.163,9.163,0,0,0,4.574,1.547,3.14,3.14,0,0,0,2.746-1.344h0c.039-.068.077-.106.087-.135a3.636,3.636,0,0,0,.387-.87,2.614,2.614,0,0,0-.1-1.779,3.735,3.735,0,0,0-1.547-1.634h0a7.516,7.516,0,0,0-1.953-.812,7.837,7.837,0,0,1-4.255-2.417c-.87-1.17-.938-2.582-.01-4.293a4.17,4.17,0,0,1,3.491-1.963,9.121,9.121,0,0,1,4.738,1.083.74.74,0,0,1-.677,1.315,7.6,7.6,0,0,0-3.955-.928,2.725,2.725,0,0,0-2.292,1.189,2.375,2.375,0,0,0-.106,2.7,6.513,6.513,0,0,0,3.471,1.866,9.575,9.575,0,0,1,2.321.977h0a5.146,5.146,0,0,1,2.137,2.311,4.1,4.1,0,0,1,.174,2.775,4.816,4.816,0,0,1-.551,1.238c-.058.087-.1.155-.126.2h0a4.583,4.583,0,0,1-3.965,1.992,10.572,10.572,0,0,1-5.347-1.76A8.628,8.628,0,0,1,128.079,177.1Z" transform="translate(-97.094 -134.05)" fill="#fff"/></g><rect width="36" height="36" transform="translate(1724 372)" fill="none"/></g></svg>