<svg width="32" height="32" viewBox="0 0 32 32" fill="none" xmlns="http://www.w3.org/2000/svg">
<rect width="32" height="32" fill="#F5F5F5"/>
<path d="M12.5063 25.416C11.8091 25.416 11.2438 24.8507 11.2438 24.1535V14.3325C11.2438 13.6353 11.809 13.0699 12.5063 13.0699C13.2036 13.0699 13.7688 13.6352 13.7688 14.3325V24.1535C13.7688 24.8507 13.2036 25.416 12.5063 25.416Z" fill="#26AAE1"/>
<path d="M27.0075 25.416C26.3102 25.416 25.745 24.8507 25.745 24.1535V14.3325C25.745 13.6353 26.3102 13.0699 27.0075 13.0699C27.7048 13.0699 28.27 13.6352 28.27 14.3325V24.1535C28.2701 24.8507 27.7048 25.416 27.0075 25.416Z" fill="#26AAE1"/>
<path d="M9.46277 13.1684H3.19543C2.53521 13.1684 2 13.7036 2 14.3638C2 15.024 2.53521 15.5593 3.19543 15.5593H5.09501V24.1814C5.09501 24.8416 5.63023 25.3768 6.29044 25.3768H6.40537C7.06559 25.3768 7.6008 24.8415 7.6008 24.1814V15.5593H9.46277C10.123 15.5593 10.6582 15.024 10.6582 14.3638C10.6583 13.7036 10.1231 13.1684 9.46277 13.1684Z" fill="#26AAE1"/>
<path d="M17.8748 19.9582C17.8748 21.3274 17.8769 22.6653 17.874 24.0031C17.8721 24.8924 17.4057 25.3822 16.5755 25.3768C15.7615 25.3715 15.3172 24.9074 15.3157 24.0241C15.3106 20.85 15.3111 17.676 15.3154 14.502C15.3166 13.6141 15.7989 13.0863 16.5858 13.0817C17.4289 13.0767 17.8727 13.5681 17.8744 14.5147C17.8762 15.6279 17.8748 16.741 17.8748 18.0055C18.3146 17.5431 18.6718 17.1707 19.0257 16.795C20.0611 15.6961 21.0921 14.593 22.1312 13.4975C22.5232 13.0841 22.998 12.9646 23.5382 13.173C24.018 13.3582 24.2787 13.7167 24.3127 14.2249C24.3469 14.7361 24.0408 15.0965 23.7117 15.4258C22.8383 16.2996 21.9566 17.1654 21.0702 18.0262C20.2535 18.8195 20.2488 18.815 21.0521 19.6533C22.1562 20.8054 23.2604 21.9575 24.3646 23.1096C24.6162 23.3722 24.8461 23.6499 24.888 24.029C24.9427 24.524 24.8342 24.9521 24.3608 25.215C23.8895 25.4769 23.2078 25.4551 22.8168 25.0873C22.2554 24.5591 21.7318 23.9897 21.2055 23.4255C20.1991 22.3466 19.2031 21.2578 18.1989 20.1768C18.1226 20.0948 18.0695 19.9722 17.8748 19.9582Z" fill="#26AAE1"/>
<path d="M12.4421 11.4601C11.1694 11.4601 10.1376 10.4283 10.1376 9.1556C10.1376 8.94604 10.1661 8.74331 10.2185 8.5504H14.6657C14.718 8.74331 14.7466 8.94604 14.7466 9.1556C14.7467 10.4283 13.7148 11.4601 12.4421 11.4601ZM12.4421 6C10.8003 6 9.46926 7.331 9.46926 8.97284C9.46926 10.6147 10.8003 11.9457 12.4421 11.9457C14.084 11.9457 15.415 10.6147 15.415 8.97284C15.415 7.331 14.084 6 12.4421 6Z" fill="#26AAE1"/>
<path d="M27.0272 11.4601C25.7545 11.4601 24.7228 10.4283 24.7228 9.1556C24.7228 8.94604 24.7512 8.74331 24.8037 8.5504H29.2507C29.3032 8.74331 29.3316 8.94604 29.3316 9.1556C29.3316 10.4283 28.3 11.4601 27.0272 11.4601ZM27.0272 6C25.3854 6 24.0544 7.331 24.0544 8.97284C24.0544 10.6147 25.3854 11.9457 27.0272 11.9457C28.6691 11.9457 30 10.6147 30 8.97284C30.0001 7.331 28.6691 6 27.0272 6Z" fill="#26AAE1"/>
</svg>
