<svg xmlns="http://www.w3.org/2000/svg" xmlns:xlink="http://www.w3.org/1999/xlink" width="26" height="126" viewBox="0 0 26 126"><defs><clipPath id="b"><rect width="26" height="126"/></clipPath></defs><g id="a" clip-path="url(#b)"><g transform="translate(-10 -11)"><path d="M10,20A10,10,0,1,0,0,10,10,10,0,0,0,10,20ZM6.836,6.836a.934.934,0,0,1,1.324,0L10,8.672l1.836-1.836A.936.936,0,0,1,13.156,8.16L11.32,10l1.836,1.836a.936.936,0,0,1-1.324,1.324L10,11.32,8.16,13.156a.936.936,0,0,1-1.324-1.324L8.672,10,6.836,8.16A.934.934,0,0,1,6.836,6.836Z" transform="translate(12 13)"/><rect width="24" height="24" transform="translate(10 11)" fill="none"/></g><g transform="translate(-10 29)"><rect width="24" height="24" transform="translate(10 11)" fill="none"/><path d="M11.875,1.875A1.875,1.875,0,1,0,10,3.75,1.875,1.875,0,0,0,11.875,1.875Zm0,16.25A1.875,1.875,0,1,0,10,20,1.875,1.875,0,0,0,11.875,18.125Zm-10-6.25A1.875,1.875,0,1,0,0,10,1.875,1.875,0,0,0,1.875,11.875ZM20,10a1.875,1.875,0,1,0-1.875,1.875A1.875,1.875,0,0,0,20,10ZM5.582,17.07a1.875,1.875,0,1,0-2.652,0A1.879,1.879,0,0,0,5.582,17.07Zm0-11.492a1.874,1.874,0,1,0-2.652,0,1.879,1.879,0,0,0,2.652,0ZM14.418,17.07a1.875,1.875,0,1,0,0-2.652A1.879,1.879,0,0,0,14.418,17.07Z" transform="translate(12 13)"/></g><g transform="translate(0 80)"><path d="M0,0H24V24H0Z" fill="none"/><circle cx="7" cy="7" r="7" transform="translate(3 3)" fill="none" stroke="#2c3e50" stroke-linecap="round" stroke-linejoin="round" stroke-width="1.5"/><line x1="6" y1="6" transform="translate(15 15)" fill="none" stroke="#2c3e50" stroke-linecap="round" stroke-linejoin="round" stroke-width="1.5"/></g></g></svg>